<svg width="113" height="113" xmlns="http://www.w3.org/2000/svg" xmlns:xlink="http://www.w3.org/1999/xlink" xml:space="preserve" overflow="hidden"><g transform="translate(-612 -555)"><path d="M668.5 606.792C662.615 606.792 657.906 602.083 657.906 596.198 657.906 590.312 662.615 585.604 668.5 585.604 674.385 585.604 679.094 590.312 679.094 596.198 679.094 602.083 674.385 606.792 668.5 606.792ZM668.5 571.479C660.378 571.479 652.727 575.481 648.136 582.308 643.546 589.018 642.604 597.61 645.547 605.261L656.729 629.98 666.381 650.226C666.734 651.05 667.558 651.521 668.5 651.521 669.442 651.521 670.266 651.05 670.619 650.226L680.271 629.98 691.453 605.261C694.396 597.61 693.454 589.018 688.864 582.308 684.273 575.481 676.622 571.479 668.5 571.479Z" fill="#4C4C4C" fill-opacity="0.723333"/></g></svg>