<svg width="389" height="389" xmlns="http://www.w3.org/2000/svg" xmlns:xlink="http://www.w3.org/1999/xlink" xml:space="preserve" overflow="hidden"><g transform="translate(-1233 -1303)"><path d="M117.105 149.927 320.114 149.927 320.114 129.667C320.114 120.752 312.821 113.458 303.906 113.458L182.344 113.458 137.771 83.8781C134.934 82.2572 132.098 81.0416 128.856 81.0416L52.6771 81.0416C43.7625 81.0416 36.4687 88.3354 36.4687 97.2499L36.4687 295.802C36.4687 296.612 88.7406 168.972 88.7406 168.972 93.6031 157.626 104.544 149.927 117.105 149.927Z" fill="#888888" fill-opacity="0.449294" transform="matrix(1 0 0 1 1233 1303)"/><path d="M352.531 182.344C352.531 173.834 346.453 166.946 337.944 166.135L117.105 166.135C111.027 166.135 105.759 169.782 103.328 175.05L48.625 307.958 295.802 307.958 350.91 189.637C352.126 187.206 352.531 184.775 352.531 182.344L352.531 182.344Z" fill="#888888" fill-opacity="0.449294" transform="matrix(1 0 0 1 1233 1303)"/><g><g><g><path d="M1569.28 1610.97 1539.85 1581.55C1535.85 1577.55 1530.44 1576.13 1525.26 1577.07L1514.9 1566.72C1524.08 1554.95 1529.5 1539.88 1529.5 1523.87 1529.5 1485.03 1497.71 1453.25 1458.87 1453.25 1420.03 1453.25 1388.25 1485.03 1388.25 1523.87 1388.25 1562.71 1420.03 1594.5 1458.87 1594.5 1474.88 1594.5 1489.71 1589.08 1501.72 1579.9L1512.07 1590.26C1511.13 1595.44 1512.55 1600.85 1516.55 1604.85L1545.97 1634.28C1549.27 1637.58 1553.51 1639.22 1557.75 1639.22 1561.98 1639.22 1566.22 1637.58 1569.52 1634.28 1575.64 1627.69 1575.64 1617.33 1569.28 1610.97ZM1458.64 1580.14C1427.56 1580.14 1402.14 1554.71 1402.14 1523.64 1402.14 1492.56 1427.56 1467.14 1458.64 1467.14 1489.71 1467.14 1515.14 1492.56 1515.14 1523.64 1515.14 1554.71 1489.71 1580.14 1458.64 1580.14Z" fill="#FFFFFF" fill-opacity="0.58"/></g></g></g></g></svg>