<svg width="390" height="389" xmlns="http://www.w3.org/2000/svg" xmlns:xlink="http://www.w3.org/1999/xlink" xml:space="preserve" overflow="hidden"><g transform="translate(-1662 -1303)"><path d="M117.105 149.927 320.114 149.927 320.114 129.667C320.114 120.752 312.821 113.458 303.906 113.458L182.344 113.458 137.771 83.8781C134.934 82.2572 132.098 81.0416 128.856 81.0416L52.6771 81.0416C43.7625 81.0416 36.4687 88.3354 36.4687 97.2499L36.4687 295.802C36.4687 296.612 88.7406 168.972 88.7406 168.972 93.6031 157.626 104.544 149.927 117.105 149.927Z" fill="#888888" fill-opacity="0.690039" transform="matrix(1.00257 0 0 1 1662 1303)"/><path d="M352.531 182.344C352.531 173.834 346.453 166.946 337.944 166.135L117.105 166.135C111.027 166.135 105.759 169.782 103.328 175.05L48.625 307.958 295.802 307.958 350.91 189.637C352.126 187.206 352.531 184.775 352.531 182.344L352.531 182.344Z" fill="#888888" fill-opacity="0.690039" transform="matrix(1.00257 0 0 1 1662 1303)"/><g><g><g><path d="M201.281 177.975 171.854 148.548C167.852 144.546 162.437 143.133 157.258 144.075L146.9 133.717C156.081 121.946 161.496 106.879 161.496 90.8708 161.496 52.027 129.714 20.2458 90.8708 20.2458 52.027 20.2458 20.2458 52.027 20.2458 90.8708 20.2458 129.714 52.027 161.496 90.8708 161.496 106.879 161.496 121.71 156.081 133.717 146.9L144.075 157.258C143.133 162.437 144.546 167.852 148.548 171.854L177.975 201.281C181.271 204.577 185.508 206.225 189.746 206.225 193.983 206.225 198.221 204.577 201.517 201.281 207.637 194.689 207.637 184.331 201.281 177.975ZM90.6353 147.135C59.5604 147.135 34.1354 121.71 34.1354 90.6353 34.1354 59.5604 59.5604 34.1354 90.6353 34.1354 121.71 34.1354 147.135 59.5604 147.135 90.6353 147.135 121.71 121.71 147.135 90.6353 147.135Z" fill="#FFFFFF" fill-opacity="0.8" transform="matrix(1.00443 0 0 1 1797 1433)"/></g></g></g></g></svg>