<svg width="114" height="114" xmlns="http://www.w3.org/2000/svg" xmlns:xlink="http://www.w3.org/1999/xlink" xml:space="preserve" overflow="hidden"><g transform="translate(-870 -349)"><path d="M897.312 365.625 956.688 365.625 956.688 446.375 897.312 446.375 897.312 365.625ZM890.188 453.5 963.812 453.5 963.812 358.5 890.188 358.5 890.188 453.5Z" fill="#56E9FF" fill-opacity="0.561765"/><path d="M905.625 372.75 915.125 372.75 915.125 382.25 905.625 382.25Z" fill="#56E9FF" fill-opacity="0.561765"/><path d="M924.625 375.125 948.375 375.125 948.375 379.875 924.625 379.875Z" fill="#56E9FF" fill-opacity="0.561765"/><path d="M905.625 391.75 915.125 391.75 915.125 401.25 905.625 401.25Z" fill="#56E9FF" fill-opacity="0.561765"/><path d="M924.625 394.125 948.375 394.125 948.375 398.875 924.625 398.875Z" fill="#56E9FF" fill-opacity="0.561765"/><path d="M905.625 410.75 915.125 410.75 915.125 420.25 905.625 420.25Z" fill="#56E9FF" fill-opacity="0.561765"/><path d="M924.625 413.125 948.375 413.125 948.375 417.875 924.625 417.875Z" fill="#56E9FF" fill-opacity="0.561765"/><path d="M905.625 429.75 915.125 429.75 915.125 439.25 905.625 439.25Z" fill="#56E9FF" fill-opacity="0.561765"/><path d="M924.625 432.125 948.375 432.125 948.375 436.875 924.625 436.875Z" fill="#56E9FF" fill-opacity="0.561765"/></g></svg>