<svg width="113" height="113" xmlns="http://www.w3.org/2000/svg" xmlns:xlink="http://www.w3.org/1999/xlink" xml:space="preserve" overflow="hidden"><g transform="translate(-115 -233)"><path d="M149.018 276.552 207.99 276.552 207.99 270.667C207.99 268.077 205.871 265.958 203.281 265.958L167.969 265.958 155.021 257.366C154.197 256.895 153.373 256.542 152.431 256.542L130.302 256.542C127.713 256.542 125.594 258.66 125.594 261.25L125.594 318.927C125.594 319.163 140.778 282.084 140.778 282.084 142.191 278.789 145.369 276.552 149.018 276.552Z" fill="#FC587E" fill-opacity="0.561765"/><path d="M217.406 285.969C217.406 283.497 215.641 281.496 213.169 281.26L149.018 281.26C147.252 281.26 145.722 282.32 145.016 283.85L129.125 322.458 200.927 322.458 216.935 288.087C217.289 287.381 217.406 286.675 217.406 285.969L217.406 285.969Z" fill="#FC587E" fill-opacity="0.561765"/></g></svg>