<svg width="113" height="114" xmlns="http://www.w3.org/2000/svg" xmlns:xlink="http://www.w3.org/1999/xlink" xml:space="preserve" overflow="hidden"><g transform="translate(-115 -142)"><path d="M34.0177 43.5521 92.9896 43.5521 92.9896 37.6667C92.9896 35.0771 90.8708 32.9583 88.2812 32.9583L52.9688 32.9583 40.0208 24.3656C39.1969 23.8948 38.3729 23.5417 37.4313 23.5417L15.3021 23.5417C12.7125 23.5417 10.5938 25.6604 10.5938 28.25L10.5938 85.9271C10.5938 86.1625 25.7781 49.0844 25.7781 49.0844 27.1906 45.7885 30.3687 43.5521 34.0177 43.5521Z" fill="#FFC000" fill-opacity="0.561765" transform="matrix(1 0 0 1.00885 115 142)"/><path d="M102.406 52.9688C102.406 50.4969 100.641 48.4958 98.1688 48.2604L34.0177 48.2604C32.2521 48.2604 30.7219 49.3198 30.0156 50.85L14.125 89.4583 85.9271 89.4583 101.935 55.0875C102.289 54.3813 102.406 53.675 102.406 52.9688L102.406 52.9688Z" fill="#FFC000" fill-opacity="0.561765" transform="matrix(1 0 0 1.00885 115 142)"/></g></svg>