<svg width="442" height="418" xmlns="http://www.w3.org/2000/svg" xmlns:xlink="http://www.w3.org/1999/xlink" xml:space="preserve" overflow="hidden"><g transform="translate(-3049 -1770)"><rect x="3063" y="1784" width="389" height="390" stroke="#4C4C4C" stroke-width="27.5" stroke-miterlimit="8" fill="none"/><path d="M3380.3 2045.29 3373.5 2056.74 3365.18 2068 3355.91 2078.22 3345.78 2087.37 3334.9 2095.41 3323.37 2102.32 3311.27 2108.07 3298.71 2112.62 3285.77 2115.96 3272.54 2118.05 3259.12 2118.87 3245.6 2118.38 3232.08 2116.55 3218.65 2113.36 3205.42 2108.77 3192.51 2102.77 3180.26 2095.5 3169 2087.18 3158.78 2077.91 3149.63 2067.78 3141.59 2056.9 3134.68 2045.37 3128.93 2033.27 3124.38 2020.71 3121.04 2007.77 3118.95 1994.54 3118.13 1981.12 3118.62 1967.6 3120.45 1954.08 3123.64 1940.65 3128.23 1927.42 3134.23 1914.51 3141.5 1902.26 3149.82 1891 3159.09 1880.78 3169.22 1871.63 3180.1 1863.59 3191.63 1856.68 3203.73 1850.93 3216.29 1846.38 3229.23 1843.04 3242.46 1840.95 3255.88 1840.13 3269.4 1840.62 3282.92 1842.45 3296.35 1845.64 3309.58 1850.23 3322.36 1856.17 3330.85 1861.03 3342.17 1868.58 3353.06 1889.34 3320.59 1906.37 3311.87 1889.75 3317.93 1896.48 3311.02 1891.87 3312.1 1892.54 3304.83 1888.38 3306.21 1889.09 3294.98 1883.88 3296.69 1884.57 3285.21 1880.59 3286.97 1881.1 3275.32 1878.33 3277.11 1878.66 3265.38 1877.08 3267.17 1877.23 3255.44 1876.81 3257.22 1876.78 3245.56 1877.49 3247.32 1877.3 3235.83 1879.12 3237.54 1878.76 3226.3 1881.66 3227.97 1881.15 3217.05 1885.1 3218.67 1884.43 3208.16 1889.42 3209.72 1888.59 3199.7 1894.59 3201.18 1893.6 3191.74 1900.58 3193.13 1899.44 3184.35 1907.38 3185.64 1906.1 3177.59 1914.96 3178.75 1913.54 3171.53 1923.31 3172.55 1921.77 3166.23 1932.42 3167.09 1930.79 3161.88 1942.02 3162.57 1940.31 3158.59 1951.79 3159.1 1950.03 3156.33 1961.68 3156.66 1959.89 3155.08 1971.62 3155.23 1969.83 3154.81 1981.56 3154.78 1979.78 3155.49 1991.44 3155.3 1989.68 3157.12 2001.17 3156.76 1999.46 3159.66 2010.7 3159.15 2009.03 3163.1 2019.95 3162.43 2018.33 3167.42 2028.84 3166.59 2027.28 3172.59 2037.3 3171.6 2035.82 3178.58 2045.26 3177.44 2043.87 3185.38 2052.65 3184.1 2051.36 3192.96 2059.41 3191.54 2058.25 3201.31 2065.47 3199.77 2064.45 3210.42 2070.77 3208.79 2069.91 3220.02 2075.12 3218.31 2074.43 3229.79 2078.41 3228.03 2077.9 3239.68 2080.67 3237.89 2080.34 3249.62 2081.92 3247.83 2081.77 3259.56 2082.19 3257.78 2082.22 3269.44 2081.51 3267.68 2081.7 3279.17 2079.88 3277.46 2080.24 3288.7 2077.34 3287.03 2077.85 3297.95 2073.9 3296.33 2074.57 3306.84 2069.58 3305.28 2070.41 3315.3 2064.41 3313.82 2065.4 3323.26 2058.42 3321.87 2059.56 3330.65 2051.62 3329.36 2052.9 3337.41 2044.04 3336.24 2045.46 3343.47 2035.69 3342.45 2037.23 3348.77 2026.58ZM3377.47 1856.52 3378.5 1979.5 3279.5 1906.53Z" fill="#4C4C4C"/></g></svg>