<svg width="418" height="418" xmlns="http://www.w3.org/2000/svg" xmlns:xlink="http://www.w3.org/1999/xlink" xml:space="preserve" overflow="hidden"><g transform="translate(-2600 -1770)"><rect x="2614" y="1784" width="390" height="390" stroke="#4C4C4C" stroke-width="27.5" stroke-miterlimit="8" fill="none"/><g><g><g><path d="M146.038 103.086 171.81 103.086 171.81 167.515 146.038 167.515Z" fill="#4C4C4C" transform="matrix(1.00097 0 0 1 2602.12 1773.33)"/><path d="M283.486 184.696 128.857 184.696 128.857 85.9049 283.486 85.9049 283.486 184.696ZM206.172 296.372C182.548 296.372 163.219 277.043 163.219 253.42 163.219 229.796 182.548 210.467 206.172 210.467 229.796 210.467 249.124 229.796 249.124 253.42 249.124 277.043 229.796 296.372 206.172 296.372ZM335.029 60.1335 283.486 60.1335 128.857 60.1335 103.086 60.1335 60.1335 103.086 60.1335 335.029C60.1335 344.479 67.8649 352.21 77.3144 352.21L335.029 352.21C344.479 352.21 352.21 344.479 352.21 335.029L352.21 77.3144C352.21 67.8649 344.479 60.1335 335.029 60.1335Z" fill="#4C4C4C" transform="matrix(1.00097 0 0 1 2602.12 1773.33)"/><path d="M193.286 240.534 219.058 240.534 219.058 266.305 193.286 266.305Z" fill="#4C4C4C" transform="matrix(1.00097 0 0 1 2602.12 1773.33)"/></g></g></g></g></svg>