<svg width="113" height="113" xmlns="http://www.w3.org/2000/svg" xmlns:xlink="http://www.w3.org/1999/xlink" xml:space="preserve" overflow="hidden"><g transform="translate(-834 -385)"><path d="M890.5 450.917C885.299 450.917 881.083 446.701 881.083 441.5 881.083 436.299 885.299 432.083 890.5 432.083 895.701 432.083 899.917 436.299 899.917 441.5 899.917 446.701 895.701 450.917 890.5 450.917ZM890.5 436.792C887.9 436.792 885.792 438.9 885.792 441.5 885.792 444.1 887.9 446.208 890.5 446.208 893.1 446.208 895.208 444.1 895.208 441.5 895.208 438.9 893.1 436.792 890.5 436.792Z" fill="#4C4C4C"/><path d="M931.698 439.146C930.464 418.226 913.774 401.536 892.854 400.302L892.854 393.24 888.146 393.24 888.146 400.302C867.226 401.536 850.536 418.226 849.302 439.146L842.24 439.146 842.24 443.854 849.302 443.854C850.536 464.774 867.226 481.464 888.146 482.698L888.146 489.76 892.854 489.76 892.854 482.698C913.774 481.464 930.464 464.774 931.698 443.854L938.76 443.854 938.76 439.146ZM914.23 443.854C913.099 455.158 904.158 464.099 892.854 465.23L892.854 455.625 888.146 455.625 888.146 465.23C876.842 464.099 867.901 455.158 866.77 443.854L876.375 443.854 876.375 439.146 866.77 439.146C867.901 427.842 876.842 418.901 888.146 417.77L888.146 427.375 892.854 427.375 892.854 417.77C904.158 418.901 913.099 427.842 914.23 439.146L904.625 439.146 904.625 443.854ZM888.146 407.365 888.146 413.05C874.244 414.218 863.212 425.244 862.038 439.146L856.365 439.146C857.575 422.12 871.12 408.575 888.146 407.365ZM856.365 443.854 862.05 443.854C863.218 457.756 874.244 468.788 888.146 469.962L888.146 475.635C871.12 474.425 857.575 460.88 856.365 443.854ZM892.854 475.635 892.854 469.962C906.76 468.793 917.793 457.76 918.962 443.854L924.635 443.854C923.425 460.88 909.88 474.425 892.854 475.635ZM918.962 439.146C917.793 425.24 906.76 414.207 892.854 413.038L892.854 407.365C909.88 408.575 923.425 422.12 924.635 439.146Z" fill="#4C4C4C"/></g></svg>